<?xml version="1.0" encoding="utf-8"?>
<!-- Generator: Adobe Illustrator 23.0.3, SVG Export Plug-In . SVG Version: 6.00 Build 0)  -->
<svg version="1.1" id="Layer_1" xmlns="http://www.w3.org/2000/svg" xmlns:xlink="http://www.w3.org/1999/xlink" x="0px" y="0px"
	 viewBox="0 0 1039 920" style="enable-background:new 0 0 1039 920;" xml:space="preserve">
<style type="text/css">
	.st0{fill:#3385D9;}
</style>
<g transform="translate(0.000000,920.000000) scale(0.100000,-0.100000)">
	<path class="st0" d="M4970,8520c-860-56-1659-377-2322-934c-772-647-1260-1552-1394-2581c-24-187-29-604-10-815
		c111-1242,773-2335,1826-3017c814-527,1847-738,2809-573c1018,174,1912,718,2539,1546c391,518,666,1186,756,1844
		c58,421,43,923-40,1330c-168,825-584,1568-1194,2136c-638,593-1437,956-2310,1048C5452,8523,5138,8531,4970,8520z M5585,7985
		c539-64,1022-229,1461-500c388-240,751-583,1015-960c332-474,548-1057,610-1645c17-156,17-537,0-688c-101-944-560-1786-1291-2369
		c-526-420-1195-687-1868-744c-178-15-549-7-722,15c-390,51-720,150-1085,325c-923,444-1600,1277-1849,2277c-59,237-81,383-98,657
		c-37,604,99,1231,387,1785c367,704,962,1260,1685,1575c318,138,666,232,990,266c58,6,119,13,135,15C5050,8004,5468,7998,5585,7985z
		"/>
	<path class="st0" d="M5138,6549c-128-14-247-67-357-159c-223-186-294-519-167-787c66-138,154-232,291-308c169-95,422-101,599-15
		c139,67,249,177,316,315c67,137,84,276,54,423C5803,6361,5487,6589,5138,6549z"/>
	<path class="st0" d="M4509,5046c-203-43-368-180-444-368c-26-66-29-87-33-209c-4-151,5-184,65-241c64-61,6-58,1123-58
		s1059-3,1123,58c60,57,70,92,65,236c-4,101-10,145-26,190c-54,149-160,269-295,336c-110,54-191,70-366,70c-134,0-150-2-231-30
		c-171-59-369-59-541,0c-81,28-95,30-235,29C4632,5059,4540,5053,4509,5046z"/>
	<path class="st0" d="M5175,3525c-16-15-25-36-25-55c0-23-4-30-20-30c-11,0-20-7-20-15s9-15,20-15c19,0,20-7,20-130s1-130,20-130
		s20,7,20,130v130h30c20,0,30,5,30,15s-10,15-30,15c-25,0-30,4-30,24c0,27,24,56,46,56c8,0,14,7,14,15
		C5250,3559,5202,3553,5175,3525z"/>
	<path class="st0" d="M5317,3544c-13-13-7-42,10-48c21-8,36,6,31,30C5355,3545,5329,3556,5317,3544z"/>
	<path class="st0" d="M6403,3534c-3-8,2-23,11-32c15-15,17-15,32,0c21,21,11,48-16,48C6419,3550,6407,3543,6403,3534z"/>
	<path class="st0" d="M3610,3465c0-43-4-75-10-75c-5,0-10,4-10,10c0,16-57,40-97,40c-21,0-53-9-71-20c-83-51-81-199,2-252
		c41-25,117-20,149,11c30,27,37,27,37-4c0-18,5-25,20-25c19,0,20,7,20,195s-1,195-20,195C3612,3540,3610,3533,3610,3465z M3577,3376
		c74-87,0-220-104-185c-78,26-97,135-33,192c28,25,39,28,74,24C3541,3403,3562,3392,3577,3376z"/>
	<path class="st0" d="M3970,3465c0-43-4-75-10-75c-5,0-10,4-10,10c0,16-57,40-97,40c-21,0-53-9-71-20c-83-51-81-199,2-252
		c41-25,117-20,149,11c30,27,37,27,37-4c0-18,5-25,20-25c19,0,20,7,20,195s-1,195-20,195C3972,3540,3970,3533,3970,3465z M3937,3376
		c74-87,0-220-104-185c-78,26-97,135-33,192c28,25,39,28,74,24C3901,3403,3922,3392,3937,3376z"/>
	<path class="st0" d="M5440,3345v-195h25h25v195v195h-25h-25V3345z"/>
	<path class="st0" d="M3125,3508c-75-204-125-343-125-350c0-4,9-8,19-8c14,0,23,12,33,43l15,42l81,3l82,3l20-46c14-32,25-45,39-45
		c19,0,18,7-20,113c-23,61-53,145-67,185c-22,62-29,72-49,72C3140,3520,3127,3514,3125,3508z M3190,3368c16-48,30-89,30-92
		s-31-6-69-6h-70l24,68c33,97,45,125,50,121C3157,3456,3173,3415,3190,3368z"/>
	<path class="st0" d="M6880,3475c0-28-4-35-20-35c-11,0-20-6-20-14c0-7,9-16,20-19c18-5,20-14,20-115c0-123,3-130,70-139
		c36-5,40-3,40,15c0,16-7,21-32,24l-33,3l-3,108l-3,107h36c24,0,35,4,35,15c0,10-11,15-35,15c-33,0-35,2-35,35c0,28-4,35-20,35
		S6880,3503,6880,3475z"/>
	<path class="st0" d="M2770,3420v-60h-55c-42,0-55-3-55-15s13-15,55-15h55v-60c0-53,2-60,20-60s20,7,20,60v60h55c42,0,55,3,55,15
		s-13,15-55,15h-55v60c0,53-2,60-20,60S2770,3473,2770,3420z"/>
	<path class="st0" d="M4240,3230c0-203,1-210,20-210s20,7,20,90c0,53,4,90,10,90s10-4,10-8c0-15,58-42,90-42c85,0,149,77,136,166
		c-3,24-13,56-22,70c-38,58-126,71-188,29l-36-24v24c0,18-5,25-20,25C4241,3440,4240,3433,4240,3230z M4457,3375
		c74-85,0-219-104-184c-90,29-96,172-8,210C4378,3415,4433,3403,4457,3375z"/>
	<path class="st0" d="M4600,3295c0-138,1-145,20-145s20,7,20,100c0,94,2,103,25,125c13,14,36,25,50,25c18,0,25,5,25,20s-7,20-25,20
		c-14,0-34-9-45-20s-22-20-25-20s-5,9-5,20c0,13-7,20-20,20C4601,3440,4600,3433,4600,3295z"/>
	<path class="st0" d="M4844,3422c-37-24-64-77-64-129c0-106,103-171,204-129c92,38,112,169,36,241C4980,3443,4892,3452,4844,3422z
		 M4997,3375c31-36,32-121,2-154c-44-47-109-49-151-4c-18,20-23,36-23,80c0,50,3,57,34,85c29,26,39,30,75,25
		C4961,3403,4983,3392,4997,3375z"/>
	<path class="st0" d="M5310,3295v-145h25h25v145v145h-25h-25V3295z"/>
	<path class="st0" d="M5622,3420c-86-53-81-204,9-252c65-35,155-15,184,41c15,30,15,31-4,31c-11,0-34-14-51-31c-27-27-36-31-68-26
		c-24,4-47,17-64,37c-50,55-43,60,93,60h122l-7,41c-8,50-31,86-67,105C5729,3446,5661,3444,5622,3420z M5749,3395c30-15,41-33,41-66
		c0-17-8-19-95-19c-101,0-106,3-81,49C5640,3407,5698,3422,5749,3395z"/>
	<path class="st0" d="M6050,3230c0-203,1-210,20-210s20,7,20,90c0,53,4,90,10,90s10-4,10-8c0-15,58-42,90-42c85,0,149,77,136,166
		c-3,24-13,56-22,70c-38,58-126,71-188,29l-36-24v24c0,18-5,25-20,25C6051,3440,6050,3433,6050,3230z M6267,3375
		c74-85,0-219-104-184c-90,29-96,172-8,210C6188,3415,6243,3403,6267,3375z"/>
	<path class="st0" d="M6410,3295c0-138,1-145,20-145s20,7,20,145s-1,145-20,145S6410,3433,6410,3295z"/>
	<path class="st0" d="M6584,3422c-33-21-64-84-64-130c0-15,9-45,19-68c42-92,191-101,236-14c15,28,14,30-4,30c-11,0-34-14-51-31
		c-26-27-36-31-66-26c-44,7-63,23-81,66c-40,95,43,190,131,149c14-6,28-19,31-30c4-11,16-18,31-18c31,0,30,13-5,52
		c-24,27-36,32-87,35C6628,3440,6608,3437,6584,3422z"/>
	<path class="st0" d="M7052,3332c5-116,17-149,64-170c38-18,88-14,117,8c14,11,28,20,31,20s6-9,6-20c0-13,7-20,20-20
		c19,0,20,7,20,145c0,136-1,145-19,145c-17,0-19-10-23-105c-3-93-6-107-26-127c-31-32-97-31-123,1c-16,19-19,40-19,127v104h-26h-27
		L7052,3332z"/>
	<path class="st0" d="M7400,3295c0-138,1-145,20-145s20,7,20,100c0,94,2,103,25,125c13,14,36,25,50,25c18,0,25,5,25,20s-7,20-25,20
		c-14,0-34-9-45-20s-22-20-25-20s-5,9-5,20c0,13-7,20-20,20C7401,3440,7400,3433,7400,3295z"/>
	<path class="st0" d="M7642,3420c-86-53-81-204,9-252c65-35,155-15,184,41c15,30,15,31-4,31c-11,0-34-14-51-31c-27-27-36-31-68-26
		c-24,4-47,17-64,37c-50,55-43,60,93,60h122l-7,41c-8,50-31,86-67,105C7749,3446,7681,3444,7642,3420z M7769,3395c30-15,41-33,41-66
		c0-17-8-19-95-19c-101,0-106,3-81,49C7660,3407,7718,3422,7769,3395z"/>
</g>
</svg>
